HIERARCHY
ROOT Hips
{
	OFFSET -0.001795 -0.223333 0.028219
	CHANNELS 6 Xposition Yposition Zposition Zrotation Yrotation Xrotation 
	JOINT LeftUpLeg
	{
		OFFSET 0.069520 -0.091406 -0.006815
		CHANNELS 3 Zrotation Yrotation Xrotation
		JOINT LeftLeg
		{
			OFFSET 0.034277 -0.375199 -0.004496
			CHANNELS 3 Zrotation Yrotation Xrotation
			JOINT LeftFoot
			{
				OFFSET -0.013596 -0.397961 -0.043693
				CHANNELS 3 Zrotation Yrotation Xrotation
				JOINT LeftToe
				{
					OFFSET 0.026358 -0.055791 0.119288
					CHANNELS 3 Zrotation Yrotation Xrotation
					End Site
					{
						OFFSET 0.000000 0.000000 0.000000
					}
				}
			}
		}
	}
	JOINT RightUpLeg
	{
		OFFSET -0.067670 -0.090522 -0.004320
		CHANNELS 3 Zrotation Yrotation Xrotation
		JOINT RightLeg
		{
			OFFSET -0.038290 -0.382569 -0.008850
			CHANNELS 3 Zrotation Yrotation Xrotation
			JOINT RightFoot
			{
				OFFSET 0.015774 -0.398415 -0.042312
				CHANNELS 3 Zrotation Yrotation Xrotation
				JOINT RightToe
				{
					OFFSET -0.025372 -0.048144 0.123348
					CHANNELS 3 Zrotation Yrotation Xrotation
					End Site
					{
						OFFSET 0.000000 0.000000 0.000000
					}
				}
			}
		}
	}
	JOINT Spine
	{
		OFFSET -0.002533 0.108963 -0.026696
		CHANNELS 3 Zrotation Yrotation Xrotation
		JOINT Spine1
		{
			OFFSET 0.005487 0.135180 0.001092
			CHANNELS 3 Zrotation Yrotation Xrotation
			JOINT Spine2
			{
				OFFSET 0.001457 0.052922 0.025425
				CHANNELS 3 Zrotation Yrotation Xrotation
				JOINT Neck
				{
					OFFSET -0.002778 0.213870 -0.042857
					CHANNELS 3 Zrotation Yrotation Xrotation
					JOINT Head
					{
						OFFSET 0.005152 0.064970 0.051349
						CHANNELS 3 Zrotation Yrotation Xrotation
						End Site
						{
							OFFSET 0.000000 0.000000 0.000000
						}
					}
				}
				JOINT LeftShoulder
				{
					OFFSET 0.078845 0.121749 -0.034090
					CHANNELS 3 Zrotation Yrotation Xrotation
					JOINT LeftArm
					{
						OFFSET 0.090977 0.030469 -0.008868
						CHANNELS 3 Zrotation Yrotation Xrotation
						JOINT LeftForeArm
						{
							OFFSET 0.259612 -0.012772 -0.027456
							CHANNELS 3 Zrotation Yrotation Xrotation
							JOINT LeftHand
							{
								OFFSET 0.249234 0.008986 -0.001171
								CHANNELS 3 Zrotation Yrotation Xrotation
								End Site
								{
									OFFSET 0.000000 0.000000 0.000000
								}
							}
						}
					}
				}
				JOINT RightShoulder
				{
					OFFSET -0.081759 0.118833 -0.038615
					CHANNELS 3 Zrotation Yrotation Xrotation
					JOINT RightArm
					{
						OFFSET -0.096012 0.032551 -0.009143
						CHANNELS 3 Zrotation Yrotation Xrotation
						JOINT RightForeArm
						{
							OFFSET -0.253742 -0.013329 -0.021401
							CHANNELS 3 Zrotation Yrotation Xrotation
							JOINT RightHand
							{
								OFFSET -0.255298 0.007772 -0.005559
								CHANNELS 3 Zrotation Yrotation Xrotation
								End Site
								{
									OFFSET 0.000000 0.000000 0.000000
								}
							}
						}
					}
				}
			}
		}
	}
}
MOTION
Frames: 6
Frame Time: 0.050000
0.000000 0.896786 0.000000 1.534733 -3.843961 -10.646922 14.048737 0.081810 10.353699 -9.076306 1.616363 9.923902 11.180960 22.328247 9.971374 0.000000 0.000000 0.000000 -9.349804 0.011036 12.846319 4.103585 -0.264478 13.159485 -0.365441 11.790985 -14.821094 0.000000 0.000000 0.000000 8.621973 0.610543 -3.132269 -3.855017 1.605058 -14.529629 0.409319 4.025476 23.115256 5.787611 -2.171450 -20.111592 0.000000 0.000000 0.000000 -37.984516 -10.930872 4.563604 -39.075267 4.370930 -7.118959 -13.068796 -23.475090 3.655660 0.000000 0.000000 0.000000 39.343749 1.833513 -0.824113 39.987942 -5.346396 -7.209256 8.087389 18.042135 1.820669 0.000000 0.000000 0.000000 
0.000252 0.896594 -0.000130 0.115305 -5.163362 -10.804176 15.023294 0.124627 9.360366 -8.165778 1.600650 12.731702 11.846133 23.324260 10.375187 0.000000 0.000000 0.000000 -7.689920 -0.136137 11.572812 3.534058 -0.046158 15.457954 -0.081518 12.750210 -14.461846 0.000000 0.000000 0.000000 10.586821 0.674018 -2.628361 -4.746262 1.855441 -15.838045 1.533933 4.923216 24.914654 4.635463 -0.919206 -24.252596 0.000000 0.000000 0.000000 -33.806433 -12.663211 5.736581 -42.092619 1.590894 -6.951095 -14.443699 -21.766667 3.634408 0.000000 0.000000 0.000000 36.896106 2.576597 0.124262 42.000617 -3.413264 -7.156697 6.581006 16.302734 1.438108 0.000000 0.000000 0.000000 
0.000164 0.894056 -0.000389 0.390299 -4.107902 -11.046608 14.090628 0.136431 8.347182 -6.853673 1.308911 14.506267 11.637449 23.044110 9.417220 0.000000 0.000000 0.000000 -6.914830 -0.262022 11.070242 2.074338 0.338079 17.255410 -0.844751 11.171824 -15.861249 0.000000 0.000000 0.000000 9.694811 0.499444 -1.716068 -4.041135 1.653272 -15.559134 0.078468 4.036089 24.536839 6.080485 -1.811862 -24.376312 0.000000 0.000000 0.000000 -32.292426 -12.669281 5.776133 -42.604055 1.915644 -7.171165 -11.989191 -22.711789 3.306378 0.000000 0.000000 0.000000 38.121939 1.591931 -0.873899 42.008063 -3.104508 -7.004214 7.517661 15.616737 1.479678 0.000000 0.000000 0.000000 
0.000151 0.896439 -0.000414 0.136099 -2.648820 -10.736559 14.665419 0.014710 7.974964 -7.158165 1.290639 13.783125 10.882035 21.826146 9.410235 0.000000 0.000000 0.000000 -6.407302 -0.376587 11.070973 2.220888 0.235428 17.062358 -0.755990 9.749380 -14.812613 0.000000 0.000000 0.000000 9.384771 0.574756 -2.618533 -3.222285 1.416742 -15.809129 -0.092552 3.681231 25.376672 6.667724 -1.743843 -27.006965 0.000000 0.000000 0.000000 -30.702606 -13.587773 6.125546 -44.244287 1.579753 -7.346462 -12.047620 -22.398838 3.265692 0.000000 0.000000 0.000000 38.166385 1.719036 -0.435285 41.252869 -3.006012 -6.984353 8.854239 15.046217 1.566327 0.000000 0.000000 0.000000 
0.000245 0.897055 -0.000273 0.276678 -2.500297 -10.479197 13.865118 0.059007 7.222803 -6.127538 1.055887 14.550473 10.959533 21.922382 9.755078 0.000000 0.000000 0.000000 -6.734745 -0.335882 10.852039 2.572602 0.137307 16.972092 -0.687654 9.696274 -14.567248 0.000000 0.000000 0.000000 9.064722 0.578220 -2.842041 -3.291474 1.446984 -15.214831 -0.204690 3.673127 24.203854 7.176878 -2.061299 -26.514937 0.000000 0.000000 0.000000 -30.093634 -12.916457 5.553872 -44.041490 2.319806 -7.456634 -12.983953 -22.279889 3.418313 0.000000 0.000000 0.000000 38.080147 0.883212 -1.108476 41.690787 -3.352956 -7.079708 8.759914 14.317710 1.469873 0.000000 0.000000 0.000000 
0.000422 0.898331 0.000171 0.407041 -2.131785 -10.593214 13.251235 0.081274 6.563671 -5.310153 0.858509 15.752925 10.820984 21.673856 10.374087 0.000000 0.000000 0.000000 -7.163735 -0.328090 11.596421 3.097961 -0.034282 15.972573 -0.522152 9.625008 -14.013143 0.000000 0.000000 0.000000 9.058272 0.679574 -3.698684 -3.400281 1.498013 -14.745510 -0.039810 3.467692 24.683188 6.940064 -1.933199 -26.483578 0.000000 0.000000 0.000000 -29.621243 -13.505469 5.952781 -44.789490 2.336110 -7.627572 -11.975209 -22.439889 3.252477 0.000000 0.000000 0.000000 37.451340 0.721256 -1.153417 42.254562 -3.482594 -7.239105 8.396833 14.696299 1.481996 0.000000 0.000000 0.000000 
